HIERARCHY
ROOT Hips
{
	OFFSET -29.453722 125.264961 -0.138695
	CHANNELS 6 Xposition Yposition Zposition Xrotation Yrotation Zrotation
	JOINT Chest
	{
		OFFSET 0.589678 13.201759 3.394122
		CHANNELS 3 Xrotation Yrotation Zrotation
		JOINT Chest2
		{
			OFFSET 3.897322 20.421860 5.179279
			CHANNELS 3 Xrotation Yrotation Zrotation
			JOINT Chest3
			{
				OFFSET 6.495590 13.439468 -0.090067
				CHANNELS 3 Xrotation Yrotation Zrotation
				JOINT Neck
				{
					OFFSET 7.623661 15.259781 2.763100
					CHANNELS 3 Xrotation Yrotation Zrotation
					JOINT Head
					{
						OFFSET 8.153633 6.448563 1.327440
						CHANNELS 3 Xrotation Yrotation Zrotation
						End Site
						{
							OFFSET 8.138179 6.480804 1.263664
						}
					}
				}
				JOINT LeftCollar
				{
					OFFSET 9.920180 9.322678 4.059816
					CHANNELS 3 Xrotation Yrotation Zrotation
					JOINT LeftUpArm
					{
						OFFSET 14.296846 -2.830002 -9.802582
						CHANNELS 3 Xrotation Yrotation Zrotation
						JOINT LeftLowArm
						{
							OFFSET 31.705685 7.795395 8.585388
							CHANNELS 3 Xrotation Yrotation Zrotation
							JOINT LeftHand
							{
								OFFSET 22.900196 15.079971 12.211544
								CHANNELS 3 Xrotation Yrotation Zrotation
								End Site
								{
									OFFSET 5.004990 3.295792 2.668911
								}
							}
						}
					}
				}
				JOINT RightCollar
				{
					OFFSET 2.426506 12.759903 5.753755
					CHANNELS 3 Xrotation Yrotation Zrotation
					JOINT RightUpArm
					{
						OFFSET -6.350084 16.323257 -1.312984
						CHANNELS 3 Xrotation Yrotation Zrotation
						JOINT RightLowArm
						{
							OFFSET 11.435492 27.063293 16.629539
							CHANNELS 3 Xrotation Yrotation Zrotation
							JOINT RightHand
							{
								OFFSET 15.376131 23.500580 10.594893
								CHANNELS 3 Xrotation Yrotation Zrotation
								End Site
								{
									OFFSET 3.360596 5.136307 2.315598
								}
							}
						}
					}
				}
			}
		}
	}
	JOINT LeftUpLeg
	{
		OFFSET 9.964291 -0.659874 0.834644
		CHANNELS 3 Xrotation Yrotation Zrotation
		JOINT LeftLowLeg
		{
			OFFSET 8.433626 -46.546707 2.503314
			CHANNELS 3 Xrotation Yrotation Zrotation
			JOINT LeftFoot
			{
				OFFSET 7.020066 -40.910950 -16.660732
				CHANNELS 3 Xrotation Yrotation Zrotation
				JOINT LeftToe
				{
					OFFSET -0.082608 -21.412340 10.053073
					CHANNELS 3 Xrotation Yrotation Zrotation
					End Site
					{
						OFFSET -0.635796 -10.170501 21.347494
					}
				}
			}
		}
	}
	JOINT RightUpLeg
	{
		OFFSET -9.964304 0.659676 -0.834694
		CHANNELS 3 Xrotation Yrotation Zrotation
		JOINT RightLowLeg
		{
			OFFSET -1.068542 -47.304138 -2.277935
			CHANNELS 3 Xrotation Yrotation Zrotation
			JOINT RightFoot
			{
				OFFSET 2.922852 -40.987537 -17.665161
				CHANNELS 3 Xrotation Yrotation Zrotation
				JOINT RightToe
				{
					OFFSET 2.162720 -22.520672 6.906414
					CHANNELS 3 Xrotation Yrotation Zrotation
					End Site
					{
						OFFSET -0.259880 -13.209164 19.621586
					}
				}
			}
		}
	}
}
MOTION
Frames: 17
Frame Time: 0.033333
-46.505592 102.810806 0.707091 -5.594533 7.645740 3.074118 4.595025 -4.508166 10.575570 6.081162 -11.823468 13.575990 -4.508913 6.036791 -1.547005 -7.656372 -20.220179 20.753547 -0.000003 -0.000001 0.000006 6.970496 -2.249560 -38.992945 13.158742 -8.925473 -81.452301 24.624727 1.119338 0.972947 0.000002 0.000000 0.000001 27.100411 -12.992598 70.763833 53.658997 -23.692497 79.451732 11.094303 -27.415367 -19.629076 -0.000001 -0.000006 -0.000001 4.064191 1.344830 -1.412206 3.831764 4.002741 -6.190484 -15.173902 -4.488620 -0.446291 -0.000003 -0.000001 -0.000000 6.914659 0.263825 -6.882983 -6.410204 -5.772869 -2.719624 -10.145208 -4.228337 -3.873602 0.000004 -0.000000 0.000000 
-46.221947 103.087151 0.804047 -5.684576 8.632596 3.515502 4.930719 -4.551784 10.781237 7.311915 -12.173806 13.608401 -5.625090 5.849540 -1.620291 -8.327986 -19.965282 20.910740 -0.000001 -0.000002 0.000005 6.844286 -1.568685 -39.262359 13.244155 -8.164169 -81.001747 24.758111 -0.522295 1.020022 -0.000002 -0.000000 -0.000001 27.458585 -11.617447 69.558756 52.853261 -23.524990 79.357994 11.959111 -27.446495 -19.194594 -0.000003 -0.000009 -0.000001 -0.475104 0.856440 0.628948 10.534137 4.007188 -7.055133 -15.246871 -3.515270 0.948522 0.000000 -0.000000 0.000001 6.186990 0.321081 -7.878489 -5.314106 -5.962085 -2.009077 -10.502232 -5.518045 -4.157690 0.000002 0.000000 0.000001 
-45.910110 103.329735 0.902290 -6.027243 9.033822 3.718730 5.696040 -4.618775 10.977723 6.730167 -12.166987 13.720040 -5.299319 5.751249 -1.919397 -8.598813 -20.030264 20.963430 -0.000000 0.000000 0.000001 6.602766 -1.826000 -39.133535 13.760678 -7.282352 -81.232621 24.996090 -2.017337 1.516272 -0.000000 -0.000003 -0.000000 27.444919 -11.360228 69.255263 52.496014 -23.566010 79.560379 11.986834 -27.191125 -19.657885 -0.000000 -0.000006 -0.000001 -3.478362 0.339976 2.563757 15.137910 3.827763 -7.762972 -15.408975 -1.379852 3.698020 -0.000002 -0.000000 -0.000000 6.482495 0.375335 -8.632357 -5.174608 -5.852422 -1.386861 -9.329885 -6.101907 -4.384545 -0.000005 -0.000000 -0.000000 
-45.527580 103.550308 1.001335 -6.031670 8.905324 3.933158 6.052513 -4.520417 10.794200 7.096231 -12.241975 13.674758 -5.488154 5.836643 -1.784249 -9.886162 -18.986010 21.234945 0.000002 -0.000003 0.000008 6.170427 -1.838039 -39.024890 14.291889 -5.665855 -81.692300 24.397506 -3.565566 1.396898 0.000001 -0.000006 0.000003 26.876987 -11.696231 69.810544 51.082776 -23.835762 79.628900 13.518893 -27.062693 -18.658359 -0.000003 -0.000007 -0.000001 -5.297823 -0.318513 4.876925 16.510719 3.232858 -7.049341 -15.772394 0.600950 6.109515 0.000002 -0.000002 -0.000000 5.318647 0.806960 -9.882963 -2.992079 -4.976306 -0.261678 -9.361247 -7.920785 -4.514885 -0.000000 0.000000 0.000001 
-45.066933 103.741425 1.080867 -6.602971 8.203068 4.293103 6.630459 -4.348531 10.281212 7.054640 -12.159508 13.352931 -5.153352 6.149168 -1.335609 -9.749487 -19.415337 20.805501 -0.000002 0.000000 -0.000000 5.405685 -2.083605 -38.884175 14.197569 -4.239268 -81.936472 23.317238 -4.158293 0.353345 -0.000000 -0.000006 0.000005 26.372315 -11.381818 69.641483 49.769628 -23.603134 79.913493 14.724776 -26.857892 -17.340530 -0.000001 -0.000003 -0.000006 -3.777265 -0.311736 7.403766 12.475429 3.024893 -5.658477 -14.034946 2.604879 8.056729 -0.000003 -0.000002 -0.000000 4.809355 0.929846 -11.255546 -1.965702 -4.523182 0.049233 -9.664126 -6.863904 -3.979758 -0.000000 -0.000001 -0.000000 
-44.595051 103.899361 1.153373 -6.743810 8.689405 4.466756 6.474954 -4.350043 10.324000 7.244547 -12.356744 13.558901 -5.329503 6.285872 -1.588189 -10.215752 -19.211246 21.008736 -0.000002 0.000000 -0.000000 5.026514 -2.506368 -38.804705 14.657630 -3.523446 -81.786154 22.929831 -3.339827 -0.780198 -0.000002 0.000003 -0.000004 25.084683 -13.179050 70.602013 48.812948 -24.252991 80.347087 16.073431 -27.546208 -15.657964 -0.000002 -0.000005 -0.000003 -2.653876 -0.351104 9.071055 8.567039 2.830439 -4.105242 -11.788616 3.264848 8.370445 0.000000 0.000001 0.000002 4.606548 1.083535 -12.058509 -0.873713 -4.300565 0.540259 -9.724592 -7.569292 -3.903113 0.000005 0.000001 0.000000 
-43.998066 104.009346 1.223042 -8.084087 7.647570 4.529518 7.890264 -4.436962 10.357844 5.285104 -11.508438 12.750261 -4.014547 6.205390 -1.060657 -9.547156 -19.621576 20.402531 -0.000000 -0.000002 0.000003 4.587671 -3.692606 -38.953508 15.179954 -2.098844 -82.008299 22.516137 -3.133936 -0.949984 -0.000004 -0.000002 0.000001 25.082669 -12.756667 70.421962 47.364702 -24.995518 81.676153 16.727249 -27.462707 -15.156876 0.000001 -0.000010 -0.000003 0.195422 0.277162 10.861925 3.604783 2.208078 -2.388287 -8.484845 2.386206 6.402834 -0.000002 -0.000001 -0.000002 5.696427 0.737758 -13.271270 -0.429618 -4.255969 0.526959 -10.856232 -6.666671 -3.662749 -0.000000 0.000000 0.000001 
-43.239479 104.065590 1.291744 -9.108484 7.042938 4.581359 7.693375 -4.449438 10.377123 7.441376 -12.046752 12.807247 -5.299157 7.244876 -0.674107 -8.594350 -19.867939 20.358969 0.000002 -0.000002 0.000003 4.533684 -3.964740 -39.185936 15.494523 -2.144641 -81.994734 22.620089 -2.557580 -0.641172 0.000001 0.000000 0.000001 24.575895 -13.775476 70.858677 46.691043 -25.930892 81.863567 16.884506 -27.985968 -14.860484 0.000000 -0.000005 -0.000004 3.192890 0.774776 12.131933 -1.055129 1.608157 -0.741142 -5.167534 -0.916442 2.135471 -0.000003 -0.000000 0.000002 5.439288 0.909947 -14.882029 1.624984 -3.798598 0.863643 -11.898793 -6.481740 -3.147132 -0.000000 0.000002 0.000000 
-42.440098 104.086449 1.354531 -8.453169 6.797562 4.461159 6.134212 -4.381354 10.373750 8.157957 -12.158204 12.785187 -5.218724 7.330880 -0.479653 -9.073113 -19.148447 20.511094 0.000001 0.000000 0.000003 4.517005 -3.877009 -39.204429 15.350939 -2.428531 -82.317952 22.352740 -1.721835 -0.818831 0.000003 -0.000002 0.000001 24.327621 -14.140746 71.064259 46.243232 -26.450893 81.694540 16.334459 -27.871371 -14.082599 -0.000001 -0.000002 -0.000005 3.927427 0.786531 12.878259 -3.775704 1.281250 0.223988 -2.597226 -4.473592 -1.827200 -0.000003 0.000001 0.000001 4.226624 1.339581 -16.046788 2.706617 -3.653662 1.111908 -12.003203 -6.232472 -2.910924 -0.000000 -0.000000 0.000002 
-41.440483 104.050385 1.399754 -9.492952 6.048730 4.262973 6.500192 -4.393891 10.494940 7.801614 -12.293393 13.192369 -4.721570 7.451215 -0.606317 -8.834514 -19.595968 20.217392 -0.000000 0.000000 -0.000002 4.485147 -3.650173 -39.315942 15.040488 -2.793496 -82.364773 22.237839 -1.689916 -1.534991 0.000003 -0.000000 0.000001 24.198474 -14.334791 71.621193 45.957092 -26.794711 80.922961 15.418599 -26.992930 -14.005029 0.000001 -0.000005 -0.000003 6.969948 1.253545 12.886231 -5.925847 1.207937 0.775066 -2.081034 -7.998146 -5.487259 0.000000 -0.000001 0.000002 4.059923 1.732192 -17.620020 4.983905 -3.250616 1.200757 -12.596118 -6.009442 -2.806671 0.000004 0.000001 -0.000001 
-40.198570 103.989403 1.442480 -9.016448 5.972956 4.121291 5.293387 -4.413012 10.815412 8.206786 -12.646349 13.690767 -5.391713 6.671957 -0.849535 -8.961838 -19.179547 20.099829 0.000002 -0.000001 -0.000000 5.053737 -2.573861 -39.576701 15.165699 -3.058685 -82.191635 22.569679 -1.503465 -2.679587 0.000002 0.000001 -0.000000 25.368851 -12.970529 71.525461 45.949357 -27.359552 80.376915 13.415059 -25.768094 -15.030555 0.000001 -0.000003 -0.000001 8.533845 1.559388 11.868266 -8.293395 1.483927 0.012081 -4.227666 -9.123863 -6.656772 -0.000002 0.000000 -0.000000 3.260968 2.193676 -19.530588 5.730698 -3.287670 1.115775 -12.039505 -4.145179 -2.561102 0.000005 0.000001 -0.000000 
-38.902348 103.920715 1.474770 -8.704601 5.932692 3.988512 4.005154 -4.383545 11.069687 8.491158 -12.893454 14.022109 -5.376079 6.203132 -1.120771 -9.479583 -19.014594 20.234680 0.000003 0.000000 0.000003 5.320253 -2.149827 -39.596540 15.151234 -3.597057 -81.886653 23.337312 -1.290810 -3.147087 -0.000001 -0.000003 -0.000004 25.775206 -12.807311 71.759477 46.170180 -27.780046 80.113966 11.264473 -25.244248 -15.955740 -0.000002 -0.000002 -0.000005 9.462874 1.803934 10.727823 -9.484393 1.957402 -0.597731 -6.858263 -8.628924 -6.051185 -0.000002 0.000000 -0.000000 2.687065 2.528733 -20.833738 6.306346 -3.414838 0.720998 -11.043916 -2.294340 -2.522284 0.000002 0.000000 0.000001 
-37.363144 103.883362 1.483664 -10.352787 5.472288 4.194856 5.680769 -4.564166 11.530172 5.928328 -12.268646 14.136785 -3.848140 5.598029 -1.766580 -8.284733 -20.012398 20.282756 0.000000 -0.000003 0.000002 5.597363 -1.174666 -39.426902 15.713610 -3.337538 -81.569179 23.863783 -1.729121 -4.248413 -0.000002 0.000001 -0.000002 25.089822 -14.148517 72.583218 46.118213 -28.135641 80.059188 10.431903 -24.490862 -16.490174 -0.000000 -0.000007 -0.000001 12.335817 2.103329 8.477282 -11.688973 2.357117 -0.985403 -9.110216 -7.200204 -4.298661 -0.000002 -0.000000 0.000000 4.493346 2.389069 -22.636895 5.748542 -3.378461 -0.215726 -10.352180 0.274210 -1.831984 0.000002 -0.000000 0.000001 
-35.615620 103.881714 1.496317 -11.165847 5.571955 4.612190 6.157750 -4.634042 11.753977 4.916755 -12.122046 14.242908 -3.695169 4.712600 -2.199464 -8.406091 -20.239671 20.240396 -0.000000 -0.000003 0.000002 6.206886 0.169745 -39.192500 16.244340 -2.661686 -81.291614 24.516646 -2.754419 -4.790456 0.000001 -0.000001 -0.000004 25.529944 -13.543574 72.428672 46.156697 -28.391995 81.112991 9.588342 -23.723655 -17.538550 -0.000002 -0.000003 -0.000001 14.564123 2.464850 6.254672 -14.059074 2.554701 -1.569592 -9.758498 -7.543199 -4.604654 0.000000 -0.000000 -0.000000 5.837840 2.075951 -24.465360 4.955861 -3.657647 -1.232033 -8.841983 2.735288 -1.861560 0.000000 -0.000001 0.000003 
-33.867329 103.890152 1.523957 -11.253420 5.540281 4.971139 6.322883 -4.625139 11.723736 3.791001 -11.816173 14.198391 -2.947040 3.768039 -2.553491 -8.601262 -20.373742 20.076977 -0.000002 -0.000000 0.000003 6.404840 0.948663 -39.060653 16.677129 -2.269903 -81.024792 24.846743 -3.578113 -4.672561 0.000001 -0.000004 0.000003 25.566105 -13.435478 72.429279 46.458834 -28.422956 81.577949 9.418311 -23.396970 -17.960169 -0.000001 -0.000009 -0.000003 15.691175 2.495434 4.569357 -15.193901 3.020213 -1.955422 -9.976772 -8.176005 -5.229078 0.000000 0.000000 -0.000000 5.997434 2.146123 -25.733480 6.003608 -3.769428 -1.673727 -7.652763 3.751699 -2.075138 -0.000002 -0.000001 0.000002 
-31.972740 103.929970 1.551226 -9.682644 4.839699 5.142813 4.038274 -4.505854 11.507218 6.351944 -12.414817 14.154165 -4.410234 4.856749 -2.136491 -8.502569 -20.799972 20.311813 -0.000005 -0.000002 0.000005 6.684909 0.825229 -38.917229 16.514274 -2.802737 -80.409809 25.218464 -3.347091 -4.327010 -0.000002 -0.000000 -0.000000 25.333225 -14.522941 72.980619 47.025299 -28.303023 81.458072 8.754253 -24.207085 -17.002200 -0.000003 -0.000009 -0.000001 14.481067 2.477441 2.336915 -14.772748 3.183825 -2.539251 -11.203951 -7.741426 -4.714703 -0.000002 0.000000 0.000000 3.810503 2.739095 -26.707245 7.000755 -3.827939 -1.228599 -3.465997 4.369784 -3.140842 -0.000000 -0.000001 0.000000 
-30.003195 104.002380 1.575113 -8.973881 4.604655 4.918936 3.349199 -4.580029 11.803147 7.045370 -12.639519 14.382790 -4.639106 5.505068 -2.286753 -8.970473 -21.066996 20.633453 -0.000000 0.000000 0.000003 6.796414 -0.413812 -38.784126 16.543393 -3.604126 -79.864678 25.471821 -3.043100 -3.021900 0.000000 -0.000002 0.000001 25.752632 -14.696578 73.353254 48.124468 -28.177881 81.589280 8.052299 -24.239763 -17.494710 -0.000001 -0.000007 -0.000006 13.894203 2.199444 0.724374 -14.612274 3.522732 -2.905690 -11.658073 -7.445137 -4.167633 -0.000002 0.000000 0.000000 2.277431 3.340484 -26.408047 8.481797 -4.100656 0.743710 -1.956194 2.167297 -4.155992 -0.000004 -0.000001 -0.000001 
